<?xml version="1.0" standalone="no"?>
<!DOCTYPE svg PUBLIC "-//W3C//DTD SVG 20010904//EN"
 "http://www.w3.org/TR/2001/REC-SVG-20010904/DTD/svg10.dtd">
<svg version="1.0" xmlns="http://www.w3.org/2000/svg"
 width="300.000000pt" height="100.000000pt" viewBox="0 0 300.000000 100.000000"
 preserveAspectRatio="xMidYMid meet">
<metadata>
Created by potrace 1.10, written by Peter Selinger 2001-2011
</metadata>
<g transform="translate(0.000000,100.000000) scale(0.100000,-0.100000)"
fill="#FFFFFF" stroke="none">
<path d="M192 703 c-102 -2 -161 -7 -157 -13 3 -6 17 -10 30 -10 29 0 45 -26
45 -73 0 -35 20 -63 35 -49 5 4 5 2 1 -5 -4 -7 -13 -10 -20 -7 -11 4 -14 -19
-18 -111 -2 -64 -9 -120 -15 -126 -6 -6 -26 -15 -45 -19 -27 -7 -22 -8 34 -9
62 -1 67 1 71 22 l4 22 2 -22 c1 -22 4 -23 99 -23 l98 0 13 38 c8 20 16 44 19
52 3 8 -10 -1 -29 -22 -38 -40 -86 -55 -143 -44 -36 7 -43 21 -47 91 -4 88 -6
85 66 85 61 0 66 -2 75 -25 15 -40 20 -30 20 43 -1 65 -1 66 -16 40 -13 -25
-20 -28 -68 -28 -35 0 -58 -5 -66 -15 -16 -19 -30 -19 -30 1 0 8 5 12 10 9 6
-4 10 26 10 82 l0 88 72 -5 c83 -6 98 -12 98 -42 0 -38 14 -9 18 37 2 25 2 44
0 43 -2 -1 -76 -4 -166 -5z m-46 -329 c-4 -9 -2 -22 4 -29 9 -11 7 -12 -9 -8
-12 3 -21 9 -21 13 0 17 13 40 22 40 6 0 7 -7 4 -16z"/>
<path d="M2720 687 c-33 -9 -45 -17 -44 -30 1 -13 -3 -16 -16 -12 -22 7 -72
-48 -64 -70 3 -8 -1 -22 -10 -30 -38 -38 -4 -163 55 -206 16 -11 29 -17 29
-12 0 4 4 2 8 -4 14 -23 110 -34 176 -22 66 13 105 28 74 29 -15 0 -18 10 -18
60 0 55 2 61 25 70 14 5 25 11 25 14 0 2 -39 4 -86 4 -78 0 -104 -12 -44 -20
24 -3 25 -7 28 -70 l3 -68 -41 0 c-22 0 -40 -5 -40 -11 0 -6 -7 -3 -16 5 -8 9
-22 16 -29 16 -8 0 -28 15 -44 33 -21 21 -31 27 -31 17 0 -9 3 -20 8 -26 4 -5
0 -2 -8 6 -8 9 -23 19 -32 23 -10 3 -15 12 -12 21 3 8 -4 25 -15 37 -23 25
-26 35 -11 44 5 3 7 12 4 19 -3 7 2 16 10 19 12 5 16 0 16 -18 0 -16 -6 -25
-15 -25 -8 0 -15 -5 -15 -11 0 -6 9 -8 20 -4 16 5 20 2 20 -14 0 -12 4 -21 9
-21 11 0 1 104 -10 108 -5 2 -9 17 -9 33 0 22 5 29 20 29 10 0 24 8 29 19 15
27 73 51 124 51 49 0 97 -29 97 -58 0 -9 5 -24 10 -32 7 -11 10 1 10 41 l0 56
-64 11 c-73 14 -68 14 -126 -1z"/>
<path d="M1178 645 c-3 -3 -54 -6 -114 -6 -84 -1 -103 -3 -81 -11 15 -5 27
-17 28 -26 0 -9 3 -26 5 -37 7 -27 6 -83 -1 -106 -6 -18 3 -24 30 -20 6 1 1
-6 -10 -15 -11 -8 -19 -20 -17 -25 5 -18 -18 -48 -40 -52 -13 -2 30 -5 95 -6
l118 -1 14 33 c17 41 11 47 -16 14 -17 -23 -28 -27 -69 -27 -38 0 -50 4 -54
18 -8 29 -11 107 -3 105 4 -2 27 -3 51 -3 34 0 46 -4 49 -17 3 -10 5 5 5 32 0
28 -2 43 -5 34 -4 -18 -32 -29 -75 -29 -27 0 -28 1 -28 60 l0 60 49 0 c39 0
53 -5 64 -21 14 -19 15 -19 19 15 4 33 -1 44 -14 31z"/>
<path d="M410 627 c24 -12 25 -17 28 -117 3 -124 -1 -148 -31 -160 -15 -6 18
-8 97 -7 l119 2 14 40 13 40 -26 -32 c-22 -29 -31 -33 -73 -33 -26 0 -52 5
-59 12 -17 17 -16 219 1 240 6 9 21 18 32 21 11 3 -16 5 -60 6 -71 1 -77 -1
-55 -12z"/>
<path d="M655 633 c41 -10 45 -21 45 -137 0 -117 -7 -140 -45 -149 -11 -3 30
-5 90 -6 90 -1 117 2 145 18 54 28 80 74 80 138 0 49 -4 59 -33 88 -43 43 -90
55 -207 54 -52 -1 -86 -4 -75 -6z m178 -27 c71 -30 103 -104 78 -179 -19 -58
-92 -89 -145 -62 -14 8 -34 11 -43 8 -11 -4 -14 -2 -11 8 3 8 11 13 17 12 6
-2 11 7 11 20 1 33 7 169 9 190 1 21 38 23 84 3z"/>
<path d="M1258 625 l33 -14 -3 -123 c-3 -119 -4 -123 -28 -135 -22 -11 -18
-13 45 -12 59 0 66 2 43 11 -27 9 -28 12 -29 86 -1 43 -3 90 -5 105 -1 16 1
27 5 25 4 -2 54 -55 111 -118 57 -63 108 -117 113 -119 5 -2 7 14 6 35 -1 22
-2 87 -1 146 2 106 2 106 30 116 22 9 15 10 -43 10 -57 0 -65 -1 -43 -9 26
-10 27 -12 30 -107 2 -53 1 -99 0 -102 -2 -3 -15 9 -29 25 -14 17 -54 60 -89
97 -35 37 -64 72 -64 77 0 5 8 12 18 14 9 3 -17 5 -58 5 -73 1 -74 1 -42 -13z"/>
<path d="M1738 630 c21 -9 22 -14 22 -140 0 -126 -1 -131 -22 -140 -17 -6 -6
-9 42 -8 36 0 58 2 49 5 -19 5 -36 57 -31 96 5 39 41 36 69 -6 46 -66 81 -97
111 -97 30 0 29 0 -34 67 l-63 67 30 18 c52 31 62 85 24 123 -22 23 -31 25
-122 24 -69 0 -91 -3 -75 -9z m162 -29 c14 -26 13 -64 -2 -84 -7 -9 -33 -21
-58 -25 l-45 -9 3 56 c4 78 6 81 51 81 30 0 43 -5 51 -19z"/>
<path d="M2058 629 c28 -8 31 -12 22 -29 -7 -12 -7 -20 -1 -20 5 0 10 -37 10
-82 0 -55 5 -84 13 -90 10 -6 8 -8 -4 -8 -11 0 -18 -8 -18 -19 0 -12 -11 -23
-27 -29 -23 -8 -11 -10 57 -10 47 0 76 3 65 5 -36 9 -45 24 -45 79 0 46 -2 53
-17 48 -17 -5 -17 -5 0 9 9 8 17 23 16 33 0 17 -1 17 -7 2 -5 -12 -12 -14 -21
-9 -11 7 -9 13 9 31 20 20 21 24 6 32 -9 5 -16 16 -16 24 0 8 4 13 9 10 4 -3
25 4 47 14 l38 20 -42 0 c-32 0 -41 -3 -36 -12 6 -10 4 -10 -7 0 -7 6 -29 12
-48 11 l-36 -1 33 -9z"/>
<path d="M2240 622 c34 -17 35 -18 38 -87 2 -38 1 -93 -3 -122 -5 -44 -10 -53
-33 -62 -22 -8 -12 -9 48 -9 41 0 66 3 55 5 -41 10 -45 22 -45 126 l0 101 73
-80 c41 -43 92 -99 115 -124 l41 -45 1 142 c0 135 1 143 22 157 21 15 19 16
-42 15 -55 0 -61 -2 -38 -10 23 -9 28 -18 33 -62 4 -29 5 -75 3 -103 l-3 -52
-60 69 c-46 52 -65 67 -80 63 -16 -4 -17 -3 -5 5 12 8 10 15 -14 40 -26 27
-27 30 -9 40 14 8 1 10 -57 11 l-75 0 35 -18z"/>
</g>
</svg>
